<?xml version="1.0" encoding="UTF-8"?> <svg xmlns="http://www.w3.org/2000/svg" width="478" height="478" viewBox="0 0 478 478" fill="none"><path d="M216.039 5.51075C230.741 -0.57889 247.259 -0.578879 261.961 5.51076L387.866 57.6623C402.568 63.7519 414.248 75.4324 420.338 90.1341L472.489 216.039C478.579 230.741 478.579 247.259 472.489 261.961L420.338 387.866C414.248 402.568 402.568 414.248 387.866 420.338L261.961 472.489C247.259 478.579 230.741 478.579 216.039 472.489L90.134 420.338C75.4323 414.248 63.7519 402.568 57.6623 387.866L5.51075 261.961C-0.57889 247.259 -0.578878 230.741 5.51076 216.039L57.6623 90.134C63.7519 75.4323 75.4324 63.7519 90.1341 57.6623L216.039 5.51075Z" fill="#000"></path></svg> 